<svg width="326" height="332" xmlns="http://www.w3.org/2000/svg" xmlns:xlink="http://www.w3.org/1999/xlink" xml:space="preserve" overflow="hidden"><g transform="translate(-467 -258)"><path d="M92.1081 112.003C92.1081 112.003 96.6233 120.514 94.0327 127.693 91.5572 134.554 88.2013 146.759 84.8716 136.251 84.5996 135.395 83.66 134.947 82.8249 135.274 78.444 136.991 64.9559 142.211 41.8936 150.523 33.7959 153.441 28.5172 160.889 26.1846 165.123 19.764 176.779 12.3218 209.196 11.2531 241.889 10.6673 259.791 10.7214 278.001 16.8613 292.401 16.8613 292.401 21.6746 301.367 32.0753 302.036 33.2224 302.11 34.0452 303.178 33.8552 304.313L31.941 315.728C31.7405 317.102 32.7499 318.357 34.1359 318.451 43.7659 319.103 79.1483 321.145 117.161 318.933 142.298 317.47 168.861 316.237 189.432 308.164L188.243 286.115C188.207 285.443 188.775 284.931 189.446 284.969 199.831 285.555 214.365 286.763 234.671 277.304 234.671 277.304 268.253 279.08 274.914 269.255 281.575 259.43 279.813 251.798 279.813 251.798 280.013 251.083 280.428 250.45 280.998 249.976 282.869 248.426 287.365 244.299 290.456 238.17 300.225 218.798 313.115 169.82 313.115 169.82 313.115 169.82 317.717 159.215 314.731 153.152 313.209 150.063 309.374 150.394 302.742 150.488 290.944 150.656 271.03 150.303 253.6 150.748 239.917 151.097 229.772 152.432 225.847 159.628L208.138 224.835C207.857 225.827 206.426 225.745 206.26 224.727L200.312 188.269C200.312 188.269 198.529 169.551 180.288 160.46 162.048 151.37 154.426 147.526 151.688 145.307 148.949 143.086 140.438 144.566 140.438 144.566 139.776 143.874 137.863 130.47 137.755 129.518L136.979 122.698 93.4435 109.857C92.3609 109.545 92.1813 110.882 92.1081 112.003Z" fill="#FFFFFF" transform="matrix(1 0 0 1.00232 467 258)"/><path d="M51.7939 255.298C49.416 251.034 16.1797 254.732 12.7646 259.165 12.4316 259.414 12.2433 259.815 12.266 260.23 12.5676 265.96 13.1341 271.476 13.9465 276.626 14.4974 280.125 15.2418 284.211 16.5789 287.994 16.9014 288.996 18.399 289.115 18.8627 288.158 24.9852 277.606 33.055 269.616 42.2405 262.409 44.153 260.709 51.8497 257.613 51.7939 255.298Z" fill="#FFFFFF" transform="matrix(1 0 0 1.00232 467 258)"/><path d="M163.305 312.013C161.785 308.722 162.231 304.827 162.177 301.139 162.21 293.376 162.768 285.569 162.73 277.775 162.698 275.895 162.665 273.952 162.897 272.156 163.012 271.401 162.331 270.672 161.567 270.751 150.211 271.609 136.732 272.557 124.555 274.206 120.873 274.727 117.064 275.266 113.347 275.071 109.604 277.342 105.842 279.671 101.041 282.156 100.438 282.48 100.209 283.228 100.527 283.834 104.522 291.479 103.415 308.938 102.619 315.455 102.188 318.974 101.281 322.417 104.036 322.566 123.435 321.668 142.718 321.227 161.757 317.123 162.66 316.9 164.069 315.788 163.861 315.01 164.051 314.064 163.291 313.037 163.305 312.013Z" fill="#FFFFFF" transform="matrix(1 0 0 1.00232 467 258)"/><path d="M163.734 258.616C161.557 258.384 159.541 257.842 157.746 257.008 157.4 256.848 156.999 256.855 156.658 257.026 152.294 259.35 146.529 261.072 142.868 259.921 141.65 259.674 140.178 262.027 138.386 262.596 136.861 262.946 136.458 265.193 138.278 265.333 143.914 264.672 161.368 263.017 163.567 262.843 164.953 262.794 164.731 260.885 164.846 259.954 164.898 259.282 164.405 258.687 163.734 258.616Z" fill="#FFFFFF" transform="matrix(1 0 0 1.00232 467 258)"/><path d="M162.254 230.893C162.815 230.623 163.188 230.071 163.227 229.45 164.654 206.255 157.015 176.047 152.833 156.506 152.639 155.539 151.301 155.183 150.67 155.962 137.162 171.159 103.18 156.583 95.9782 153.368 94.2855 152.978 89.9324 149.564 88.6685 150.413 93.6091 180.409 97.5873 215.763 98.0842 250.734 98.0964 251.543 98.8599 252.127 99.6427 251.923 119.989 246.615 142.886 240.22 162.254 230.893Z" fill="#FFFFFF" transform="matrix(1 0 0 1.00232 467 258)"/><path d="M100.779 284.133C100.647 283.327 99.6775 282.851 98.9628 283.261 90.0632 288.025 80.522 291.744 71.5369 295.053 60.2054 299.256 48.0005 303.14 35.5497 303.107 34.8471 303.093 34.237 303.743 34.3032 304.444 35.2185 307.282 31.2977 320.013 34.1045 319.827 56.4189 322.198 78.3986 323.13 100.739 322.651 101.525 322.656 103.077 321.609 102.84 320.859 104.564 308.685 102.734 295.537 100.779 284.133Z" fill="#FFFFFF" transform="matrix(1 0 0 1.00232 467 258)"/><path d="M188.703 308.87C186.775 302.812 187.379 295.429 186.768 289.355 186.7 283.257 185.905 276.439 187.382 270.549 187.701 269.731 186.976 268.781 186.099 268.885 180.419 269.377 174.633 269.799 169.037 270.205 167.449 270.671 163.643 269.558 163.61 271.935 163.896 284.185 162.472 296.711 162.547 309.386 162.561 311.792 162.214 313.382 162.768 315.104 163.063 316.016 164.332 316.57 165.205 316.192 169.128 315.026 173.826 313.771 178.941 313.293 180.867 313.108 190.708 312.291 188.703 308.87Z" fill="#FFFFFF" transform="matrix(1 0 0 1.00232 467 258)"/><path d="M191.081 257.62C177.028 253.285 186.069 252.355 171.072 258.138 168.755 258.715 167.752 258.909 165.27 258.642 164.592 258.555 163.931 259.102 163.893 259.785 163.804 260.842 163.375 262.998 165.102 262.871 172.613 262.25 180.984 261.349 191.008 260.085 192.38 259.949 192.457 257.838 191.081 257.62Z" fill="#FFFFFF" transform="matrix(1 0 0 1.00232 467 258)"/><path d="M205.61 230.109C203.387 227.595 203.387 222.433 202.695 218.833 199.427 179.593 198.252 167.569 157.552 150.159 156.557 149.786 150.244 145.136 149.716 144.962 148.037 144.441 143.219 143.653 142.23 145.101 141.791 147.734 147.387 151.862 149.336 153.38 149.637 153.588 150.342 153.691 151.219 153.708 152.317 153.729 153.265 154.486 153.532 155.553 158.976 177.259 164.025 202.251 163.999 228.022 163.976 228.861 164.893 229.511 165.678 229.195 173.735 226.009 180.477 228.123 190.694 232.441 191.064 232.597 192.633 232.19 193.192 233.538 193.937 235.33 196.196 234.975 202.089 239.742 202.755 240.342 203.602 240.262 203.801 239.39 204.151 236.814 206.456 231.83 205.61 230.109Z" fill="#FFFFFF" transform="matrix(1 0 0 1.00232 467 258)"/><path d="M51.977 254.156C52.3657 254.259 58.6172 257.143 60.2368 257.516 61.9069 257.899 63.6345 258.297 65.39 258.53 67.4175 258.947 69.4206 259.13 71.4062 259.13 78.8781 259.13 86.0692 256.532 93.0739 254.001 94.2541 253.574 96.9702 252.878 97.6605 251.824 98.0127 251.287 96.9928 243.646 96.9545 240.374 96.8935 235.185 96.829 229.82 96.625 224.536 96.0061 208.441 94.7928 193.714 92.917 179.52 91.6217 168.79 89.3536 158.08 87.1588 147.723 86.3447 143.883 85.5044 139.912 84.7251 136 84.6414 135.576 84.3451 135.227 83.9406 135.076 83.5362 134.924 83.0829 134.99 82.7412 135.252 79.0541 138.072 74.4082 139.619 69.9157 141.114 69.9157 141.114 63.1272 143.412 60.1496 144.345 50.3993 147.399 40.3194 150.556 32.8493 158.012 32.8301 158.032 32.8109 158.052 32.7935 158.072 19.9087 172.745 16.9938 194.162 14.4224 213.058L14.1104 215.341C14.1087 215.354 14.1069 215.366 14.1069 215.376 12.3653 231.484 11.7273 244.483 12.1021 256.285 12.116 256.715 12.3514 257.109 12.7245 257.326 13.0975 257.542 13.556 257.55 13.9361 257.348 19.3072 254.496 32.6767 253.304 32.6767 253.304 39.3013 252.638 45.701 252.493 51.977 254.156Z" fill="#FFFFFF" transform="matrix(1 0 0 1.00232 467 258)"/><path d="M314.709 156.431C316.875 147.823 302.432 150.361 295.931 150.561 274.572 151.243 255.054 151.21 238.247 151.98 227.229 153.361 225.149 162.055 222.693 171.065 214.147 199.883 207.662 229.197 199.819 257.826 199.739 258.117 197.296 258.825 196.716 259.025 175.1 263.092 153.363 262.859 131.77 266.515 124.828 267.001 117.67 268.551 110.432 269.642 108.016 270.636 110.383 273.301 111.928 274.569 112.92 275.09 114.273 274.708 115.449 274.917 128.77 273.674 142.106 271.813 155.3 271.052 162.604 270.517 170.149 269.787 177.487 269.307 184.396 268.831 191.538 268.338 198.438 267.193 199.522 266.98 203.527 264.954 205.223 265.293 209.435 264.987 213.581 264.362 217.794 263.819 224.902 263.016 231.906 261.103 239.005 260.565 241.782 259.255 244.833 258.347 247.715 257.064 254.461 254.479 254.263 241.66 257.102 240.773 261.384 244.357 259.351 235.381 261.262 234.173 262.538 233.296 263.223 235.886 264.552 235.403 265.066 235.25 265.427 234.785 265.444 234.249 265.636 229.434 268.985 227.255 271.04 231.389 272.142 232.973 274.326 230.628 275.78 232.013 281.605 236.048 278.676 251.332 282.326 249.033 282.971 248.654 283.608 248.201 283.768 247.451 286.144 244.685 287.886 242.216 289.247 239.681 299.643 214.285 311.109 186.296 314.709 156.431Z" fill="#FFFFFF" transform="matrix(1 0 0 1.00232 467 258)"/><path d="M316.652 153.801C316.436 152.62 316.06 151.189 315.09 150.418 313.764 149.362 312.006 148.644 310.305 148.768 286.66 148.841 263.012 149.31 239.375 149.855 237.767 149.814 236.15 150.178 234.652 150.75 225.843 152.802 223.46 160.469 221.309 168.216 215.878 185.975 211.431 204.003 206.919 222.011 202.826 191.433 206.116 168.835 173.474 153.865 166.949 150.427 159.787 148.419 153.316 144.88 150.567 142.141 145.52 141.944 141.805 143.051 140.128 139.763 139.228 136.113 139.113 132.426 139.09 131.68 137.938 131.225 137.586 132.013 134.125 139.903 141.193 150.607 147.816 154.808 143.208 160.167 134.654 160.045 128.156 159.686 114.508 158.575 100.985 154.282 89.1636 147.383 88.7435 145.661 88.2954 143.946 87.8108 142.241 93.3284 136.937 96.6093 129.371 95.9155 121.669 95.6104 118.462 94.7579 113.274 92.6659 110.809 92.0227 110.115 90.9296 110.685 90.8895 111.544 90.8076 113.307 91.599 115.115 91.9355 116.839 93.6823 124.701 92.3382 132.597 86.7003 138.571 86.2157 137.07 85.6996 135.579 85.14 134.103 84.8262 133.273 83.9249 133.233 83.4647 133.704 67.3199 140.051 48.9122 141.463 34.4741 151.759 11.3699 169.989 9.78872 217.569 8.32259 245.208 8.44811 261.021 8.28598 280.916 15.8171 295.054 19.2183 301.163 24.9434 304.151 31.9114 304.28 31.2385 308.051 30.4069 311.712 29.7462 315.476 29.4481 317.221 28.9687 318.938 29.7619 320.589 30.5377 322.207 32.6645 321.795 33.5362 320.589 34.4444 319.332 34.2753 317.358 34.4723 315.852 34.9552 312.017 35.8286 308.246 35.5497 304.35 48.126 304.385 60.2995 300.549 71.971 296.219 81.3692 292.757 90.7082 289.092 99.552 284.357 101.524 294.915 101.914 305.734 101.102 316.433 100.928 318.568 104.259 318.558 104.432 316.433 104.914 307.65 105.715 291.062 101.635 283.252 105.347 281.256 109.025 279.209 112.646 277.056 112.99 276.852 113.192 276.591 113.282 276.314 119.126 276.622 124.896 275.21 130.698 274.701 140.992 273.531 151.327 272.756 161.659 271.994 161.281 274.921 161.57 278.047 161.492 280.972 161.4 284.375 161.274 287.776 161.156 291.177 161.041 294.488 160.99 297.802 160.931 301.112 160.87 304.481 160.542 307.997 161.109 311.325 161.379 312.915 164.048 312.915 164.32 311.325 164.876 308.079 164.62 304.671 164.663 301.383 164.796 294.671 164.876 287.957 164.886 281.242 164.897 278.167 165.275 274.834 164.848 271.762 171.969 271.235 179.094 270.744 186.209 270.125 185.198 272.96 185.419 276.418 185.328 279.359 185.226 282.703 185.384 286.064 185.524 289.404 185.735 294.444 186.069 299.477 186.505 304.503 186.657 306.252 186.704 307.936 187.617 309.486 188.548 311.065 190.764 310.608 191.327 309.001 191.878 307.427 191.62 305.875 191.481 304.254 191.343 302.654 191.216 301.053 191.099 299.451 190.768 294.81 190.497 290.164 190.407 285.511 194.148 285.702 197.805 286.678 201.541 286.868 213.159 287.152 224.258 282.825 235.039 279.004 237.872 279.764 240.815 279.565 243.729 279.548 246.956 279.488 250.185 279.317 253.391 278.948 271.094 277.137 281.509 270.896 281.592 251.733 283.735 250.704 285.975 249.292 286.789 246.944 290.483 242.598 292.701 237.328 294.68 232.039 297.239 225.676 299.681 219.264 301.979 212.801 307.58 196.794 312.803 180.533 315.922 163.839 316.473 160.622 317.25 157.066 316.652 153.801ZM156.9 151.222C160.225 153.267 163.765 154.813 167.299 156.454 199.446 169.736 198.309 188.637 201.458 219.011 202.193 222.888 202.153 228.064 204.672 230.932 203.984 233.65 203.292 236.366 202.589 239.078 200.031 236.901 197.181 235.046 194.251 233.399 193.304 220.036 193.428 206.262 188.608 193.525 188.411 192.983 187.562 193.196 187.729 193.768 191.381 206.103 191.139 219.037 191.189 231.762 183.308 227.722 173.906 224.849 165.247 228.022 165.275 201.06 159.763 174.346 152.981 148.365 154.226 149.402 155.521 150.375 156.9 151.222ZM146.071 149.029C145.061 147.988 144.153 146.86 143.344 145.663 145.405 145.577 147.38 145.462 149.301 146.137 149.447 148.213 150.004 150.208 150.525 152.219 150.377 152.259 150.234 152.319 150.099 152.39 148.733 151.334 147.244 150.34 146.071 149.029ZM96.0584 154.784C110.354 161.213 139.526 170.753 151.613 156.78 155.61 174.607 159.071 192.608 160.538 210.84 161.215 217.076 160.777 223.462 161.532 229.635 142.126 239.681 120.311 243.576 99.6828 250.373 99.8937 217.306 97.1864 184.124 90.173 151.773 92.0505 152.95 94.1233 153.879 96.0584 154.784ZM15.3481 215.514C17.9666 196.421 20.5746 173.884 33.7314 158.9 43.2726 149.374 57.3359 147.031 69.5339 142.56 74.3437 140.952 79.4272 139.361 83.4996 136.247 86.3743 150.692 89.9063 165.026 91.674 179.673 93.6439 194.564 94.798 209.578 95.375 224.586 95.7063 233.186 95.6627 241.784 95.8562 250.384 95.8667 250.863 96.0183 251.247 96.2519 251.539 86.4196 254.976 76.2143 259.499 65.5975 257.301 62.1806 256.85 58.8752 255.757 55.4618 255.305 55.7042 253.647 55.4235 252.019 55.3102 250.349 55.1812 248.445 55.1393 246.536 55.1132 244.629 55.1062 233.794 53.6314 222.883 55.284 212.106 55.4601 210.992 53.8318 210.481 53.5529 211.628 51.8253 218.743 51.7608 226.111 51.8968 233.393 52.1147 239.749 51.7451 246.118 52.1548 252.467 45.3611 250.664 38.5046 251.471 31.6464 252.155 25.4263 252.706 18.9655 253.265 13.3468 256.248 12.918 242.678 13.8995 228.908 15.3481 215.514ZM17.7574 287.577C16.4796 283.963 15.7439 280.006 15.179 276.431 14.3335 271.077 13.8018 265.641 13.5124 260.164 19.5705 255.628 30.2204 255.818 37.5998 254.92 41.9198 254.541 46.3408 254.493 50.5718 255.556 47.7477 257.768 44.5138 259.374 41.5432 261.372 37.7916 263.865 34.6641 267.102 31.4912 270.271 26.2997 275.5 21.2005 281.005 17.7574 287.577ZM78.7055 288.371C63.8263 293.879 40.4937 303.532 24.9399 297.607 22.2534 296.057 20.3584 293.365 18.9725 290.523 22.8549 283.454 28.3184 277.459 34.0156 271.818 37.2111 268.645 40.3246 265.526 44.1512 263.11 45.9433 261.978 47.786 260.926 49.5677 259.775 50.9414 258.888 52.8155 257.84 53.9608 256.499 54.4594 256.576 55.0051 256.395 55.2736 255.971 62.1004 259.681 70.1127 261.152 77.8181 260.017 83.4647 259.092 88.8254 256.998 94.1983 255.105 111 249.074 128.632 245.677 145.344 239.396 150.242 237.532 155.246 236.085 159.876 233.597 174.706 223.891 189.197 231.976 202.184 240.633 201.712 242.448 201.233 244.263 200.751 246.076 195.886 241.024 190.469 235.306 183.038 234.922 179.769 234.779 176.551 235.433 173.312 235.752 172.593 235.824 172.586 236.812 173.312 236.876 176.247 237.134 179.195 237.148 182.133 237.354 190.525 237.914 194.397 244.083 199.904 249.251 199.583 250.432 199.292 251.625 198.956 252.796 194.306 247.495 183.625 241.449 176.612 243.968 172.161 242.98 167.517 243.114 163.187 244.737 162.976 244.817 162.986 245.166 163.244 245.157 173.697 244.488 184.546 247.356 191.073 256.042 188.684 255.549 186.439 254.557 184.235 253.539 177.879 250.213 170.922 248.436 164.123 251.67 160.329 253.398 156.815 255.675 153.013 257.388 148.356 259.486 143.834 259.723 138.951 258.283 138.297 258.091 137.957 258.997 138.501 259.351 139.085 259.73 139.673 260.047 140.262 260.321 137.743 261.992 135.107 263.267 132.516 264.813 124.316 265.884 116.14 267.135 107.991 268.556 106.632 268.793 106.806 270.618 107.838 271.124 108.173 272.719 109.079 274.002 110.251 275.102 99.7804 279.64 89.399 284.38 78.7055 288.371ZM195.058 256.743C192.469 252.314 188.123 248.893 183.644 246.527 187.101 247.441 190.384 249.245 193.203 251.463 194.906 252.781 196.247 254.449 197.903 255.798 197.542 256.632 197.115 257.437 196.587 258.202 196.003 258.269 195.42 258.333 194.836 258.399 194.885 258.318 194.924 258.23 194.951 258.141 195.229 257.753 195.326 257.231 195.058 256.743ZM161.954 261.722C161.117 261.79 157.151 262.067 152.584 262.51 147.321 263.021 141.261 263.722 138.278 264.084 139.636 263.314 141.524 262.421 142.563 261.135 146.479 262.111 150.45 261.136 154.264 259.519 154.391 259.465 156.229 258.63 156.346 258.574 156.639 258.433 156.93 258.29 157.219 258.143 158.703 258.83 160.312 259.32 161.97 259.623 161.957 259.705 161.949 259.789 161.949 259.876 161.949 260.469 161.949 261.06 161.949 261.652 161.951 261.675 161.952 261.698 161.954 261.722ZM159.526 256.946C165.122 253.665 171.561 250.938 177.961 253.661 170.613 257.374 167.897 258.335 159.526 256.946ZM165.254 259.975C167.336 260.047 169.422 259.836 171.373 259.348 173.674 258.727 175.763 257.531 177.93 256.571 179.14 256.015 180.433 255.762 181.641 255.221 184.497 256.517 187.574 258.229 190.851 258.846 182.339 259.918 173.802 260.73 165.256 261.449 165.254 260.959 165.254 260.467 165.254 259.975ZM166.834 268.868C151.369 270.184 135.864 271.045 120.486 273.253 118.788 273.472 117.078 273.653 115.362 273.666 114.473 273.671 113.492 273.443 112.63 273.592 111.72 272.865 110.882 271.98 110.566 270.873 117.438 269.693 124.328 268.621 131.237 267.676 131.605 267.904 132.084 267.794 132.445 267.515 153.839 264.381 175.573 264.131 196.864 260.254 197.321 260.612 197.964 260.772 198.548 260.593 198.503 262.294 198.457 263.995 198.412 265.697 198.313 265.779 198.229 265.868 198.157 265.962 187.877 267.667 177.225 267.901 166.834 268.868ZM278.127 255.556C277.616 261.701 275.615 267.881 270.026 271.133 260.835 276.122 249.824 276.134 239.62 276.235 237.877 276.436 233.65 274.513 233.071 276.696 222.756 280.384 212.118 284.453 201.013 284.415 197.415 284.281 193.904 283.592 190.381 284.509 190.333 281.273 190.164 278.043 190.103 274.808 190.063 273.181 190.128 271.337 189.532 269.806 192.588 269.398 195.745 269.335 198.733 268.523 199.167 268.769 199.714 268.797 200.274 268.43 201.679 267.517 203.007 267.618 204.615 267.493 214.776 266.406 224.889 264.895 234.954 263.101 234.556 263.947 234.384 264.878 234.56 265.882 234.673 266.529 235.642 266.769 236.061 266.277 236.978 265.202 237.598 263.922 238.651 262.953 241.749 260.277 246.123 259.968 249.556 257.871 255.267 254.412 254.519 248.743 256.949 243.571 258.122 247.296 257.99 251.287 257.716 255.138 257.299 258.83 256.82 264.843 252.209 265.394 251.702 265.47 251.733 266.157 252.078 266.393 255.788 268.919 258.657 262.845 259.459 260.233 260.948 255.38 261.145 250.051 260.3 245.061 260.606 241.779 260.73 238.419 261.705 235.255 262.89 236.653 263.063 238.66 263.438 240.4 263.966 243.478 264.496 246.58 264.902 249.674 265.408 253.462 265.559 257.317 265.071 261.116 264.902 262.425 264.386 263.769 264.722 265.075 264.906 265.784 265.866 266.049 266.375 265.51 270.137 259.819 266.713 243.471 265.23 236.735 266.032 235.815 266.572 229.354 268.504 230.238 269.949 231.2 270.841 236.116 271.272 237.893 272.506 243.295 272.75 248.862 271.842 254.343 271.466 256.914 270.821 259.426 271.031 262.038 271.106 262.967 272.452 263.546 272.947 262.557 274.049 260.352 274.415 258.037 274.774 255.617 276.113 247.966 275.491 240.075 272.916 232.738 279.185 232.387 278.523 251.25 278.127 255.556ZM313.349 158.765C309.545 183.297 300.84 206.86 291.953 229.942 290.731 233.001 289.624 236.184 288.064 239.09 286.599 241.819 284.751 244.291 282.74 246.634 282.541 246.866 282.426 247.134 282.377 247.411 282.129 247.614 281.866 247.797 281.591 247.969 281.439 242.94 280.036 227.428 272.046 230.768 268.767 225.011 264.301 228.737 264.116 234.206 263.608 233.48 262.946 232.945 262.064 232.801 258.612 232.307 259.003 238.142 258.546 240.381 255.207 236.557 252.821 246.594 252.32 248.752 251.489 251.927 250.141 254.465 247.092 255.94 244.413 257.237 241.439 257.843 238.834 259.32 231.776 259.845 224.658 261.776 217.554 262.582 214.241 263.066 210.917 263.411 207.597 263.842 205.396 264.128 203.047 263.995 200.91 264.56 200.858 262.576 200.804 260.591 200.751 258.607 200.746 258.389 200.67 258.189 200.549 258.021 201.592 255.907 202.171 253.607 202.796 251.308 209.017 228.439 214.213 205.302 220.608 182.48 222.43 175.979 224.18 169.384 226.438 163.019 227.409 160.282 228.81 157.395 231.321 155.765 233.315 154.629 235.848 153.79 238.034 153.241 241.585 153.016 245.171 153.096 248.735 152.964 268.145 152.578 287.556 152.23 306.97 152.096 308.426 152.066 309.974 151.98 311.415 152.132 311.921 152.305 312.58 152.774 313.009 153.07 313.727 154.866 313.577 156.898 313.349 158.765Z" transform="matrix(1 0 0 1.00232 467 258)"/><path d="M104.916 173.237C114.06 179.795 129.955 180.187 139.666 174.631 141.196 173.713 140.206 171.038 138.412 171.659 132.112 173.836 125.815 175.287 119.091 174.738 114.344 174.407 109.712 172.79 105.784 170.106 104.996 169.567 102.941 167.906 102.392 169.64 101.932 171.094 103.926 172.464 104.916 173.237Z" transform="matrix(1 0 0 1.00232 467 258)"/><path d="M-6112.15-1183.19C-6112.59-1203.74-6119.77-1221.67-6137.32-1234.36-6138.44-1235.18-6140.11-1234.78-6141.04-1233.86-6141.88-1233.69-6142.57-1233.16-6142.97-1232.4-6153.35-1213.46-6164.26-1194.83-6175.73-1176.51-6183.1-1164.68-6192.05-1152.83-6193.22-1138.49-6193.42-1138.21-6188.04-1135.13-6187.27-1137.44-6184.59-1137.36-6181.94-1136.67-6179.37-1135.88-6173.1-1133.92-6166.73-1131.98-6160.34-1130.48-6139.24-1124.88-6116.6-1132-6114.91-1156.58-6112.64-1159.77-6111.35-1173.92-6111.68-1178.31L-6112.15-1183.19Z" fill="#FFFFFF" transform="matrix(1 0 0 1.00232 6744.68 1517.85)"/><path d="M-6098.87-1127.86C-6101.85-1141.87-6103.77-1156.06-6105.47-1170.26-6106.31-1177.14-6106.97-1184.04-6107.74-1190.92-6108.46-1197.34-6109.29-1203.77-6110.97-1210.02-6112.52-1215.82-6114.78-1221.57-6118.15-1226.58-6121.3-1231.24-6125.23-1235.33-6129.78-1238.66-6138.74-1245.3-6150.21-1248.83-6161.35-1247.66-6163.04-1247.48-6164.66-1247.51-6164.83-1247.5-6210.2-1243.37-6220.86-1164.48-6221.84-1148.58-6221.91-1147.34-6221.98-1146.1-6222.02-1144.87-6222.36-1142.11-6222.61-1139.34-6222.73-1136.57-6222.87-1133.36-6222.8-1130.15-6222.5-1126.96-6222.21-1123.69-6221.86-1120.33-6220.5-1117.33-6219.66-1115.47-6180.65-1118.01-6180.25-1120.2-6179.37-1124.63-6179.06-1129.15-6179.25-1133.66-6179.36-1135.8-6179.62-1137.94-6180.07-1140.05-6180.19-1140.63-6180.33-1141.71-6180.66-1142.56-6177.11-1149.32-6173.18-1155.89-6169.16-1162.39-6160.77-1175.91-6151.85-1189.17-6145-1203.57-6141.56-1210.79-6138.18-1218.45-6136.56-1226.35L-6136.3-1226.3C-6136.33-1226.2-6136.3-1226.09-6136.21-1226.02-6128.77-1220.88-6123.78-1213.07-6120.55-1204.72-6116.79-1194.95-6114.99-1184.53-6115.24-1174.06-6115.66-1157.5-6121.93-1137.03-6139.7-1131.8-6143.76-1130.6-6148.13-1130.26-6152.28-1131.14-6154.25-1131.53-6156.15-1132.2-6157.93-1133.13-6159.88-1134.17-6161.5-1135.65-6163.33-1136.86-6165.03-1137.98-6167-1135.81-6166.04-1134.16-6163.89-1130.53-6159.29-1128.31-6155.35-1127.21-6151.13-1126.04-6146.69-1125.99-6142.4-1126.73-6142.08-1126.79-6141.75-1126.85-6141.42-1126.92-6141.33-1125.8-6140.88-1124.74-6140.13-1123.9-6139.78-1123.5-6139.38-1123.15-6138.93-1122.88-6138.86-1121.83-6138.18-1120.77-6137.08-1120.54-6131.21-1119.32-6106.78-1122.53-6100.91-1124.28-6099.34-1124.74-6098.54-1126.29-6098.87-1127.86" transform="matrix(1 0 0 1.00232 6744.68 1517.85)"/><path d="M141.73 106.438C142.699 106.536 142.95 112.017 142.078 112.714 141.207 113.411 139.725 114.37 138.94 112.714 138.156 111.058 140.858 106.351 141.73 106.438Z" fill="#FFFFFF" transform="matrix(1 0 0 1.00232 467 258)"/><path d="M121.635 70.2626C123.809 69.621 129.544 71.6572 130.374 75.7976 131.362 80.7382 129.241 85.4294 123.226 86.1268 118.444 86.6811 116.188 82.858 116.209 79.5231 116.236 75.3827 117.799 71.3957 121.635 70.2626Z" fill="#FFFFFF" transform="matrix(1 0 0 1.00232 467 258)"/><path d="M152.84 70.2835C155.368 69.4868 159.604 71.9327 160.423 73.8346 161.577 76.5159 162.69 80.9822 158.724 84.5351 155.866 87.0943 150.527 86.3307 149.048 84.2736 146.826 81.1792 146.346 72.3319 152.84 70.2835Z" fill="#FFFFFF" transform="matrix(1 0 0 1.00232 467 258)"/><path d="M138.824 92.7496C136.997 91.6827 138.637 88.8777 140.48 89.915 141.658 90.5792 143.002 90.6803 144.289 90.2619 144.864 90.0754 145.389 89.7651 145.863 89.3885 146.526 88.862 146.245 88.6476 145.907 87.8753 145.236 86.3412 144.387 84.889 143.682 83.3688 143.212 82.3525 142.607 81.3326 143.353 80.3529 143.616 80.006 144.057 79.9868 144.317 80.3529 145.318 81.7632 146.114 83.4543 146.873 85.086 147.342 86.0954 147.8 87.1466 148.452 88.0549 149.074 88.9213 149.434 89.7093 148.879 90.75 147.036 94.207 141.862 94.5243 138.824 92.7496L138.824 92.7496Z" transform="matrix(1 0 0 1.00232 467 258)"/><path d="M114.796 66.4953C116.019 63.6519 118.022 60.9393 120.885 59.6109 122.494 58.8648 124.488 58.5144 126.197 59.1298 127.743 59.6859 128.66 60.9864 129.678 62.1945 129.983 62.5571 130.637 62.3567 130.738 61.9138 131.205 59.8707 129.776 58.1448 128.055 57.1738 125.949 55.9866 123.287 56.0615 121.075 56.8948 117.107 58.3889 113.969 61.8982 113.751 66.2129 113.723 66.7411 114.572 67.013 114.796 66.4953L114.796 66.4953Z" transform="matrix(1 0 0 1.00232 467 258)"/><path d="M148.316 66.2059C150.073 64.5201 152.39 62.3131 155.042 63.2074 156.201 63.5979 157.09 64.4626 157.714 65.4911 158.436 66.6801 158.603 68.1846 159.428 69.2933 159.775 69.7605 160.409 69.6838 160.62 69.1381 161.231 67.5587 160.472 65.4859 159.625 64.1139 158.759 62.7105 157.411 61.5547 155.835 61.0335 152.31 59.8672 149.285 62.5868 147.078 64.9716 146.318 65.7962 147.502 66.9886 148.316 66.2059L148.316 66.2059Z" transform="matrix(1 0 0 1.00232 467 258)"/><path d="M131.064 75.618C130.128 73.024 127.454 70.3567 124.535 69.7378 124.56 69.5635 124.461 69.3613 124.25 69.3561 120.468 69.2916 117.132 71.5143 115.683 75.0323 114.253 78.505 114.729 83.4682 117.93 85.8461 120.894 88.0479 125.208 87.6626 128.09 85.5271 131.139 83.2712 132.361 79.2058 131.064 75.618ZM123.753 85.419C121.955 85.6805 119.9 85.2603 118.629 83.8848 117.273 82.417 116.868 80.0513 117.015 78.1249 117.255 74.9678 119.159 72.2325 121.884 70.8292 121.912 70.8379 121.921 70.8658 121.952 70.8693 123.854 71.1377 125.527 71.2249 127.168 72.379 128.845 73.5574 129.825 75.313 130.022 77.3474 130.4 81.2437 127.637 84.8524 123.753 85.419Z" transform="matrix(1 0 0 1.00232 467 258)"/><path d="M126.31 77.3439C125.243 77.1713 124.394 77.8059 124.1 78.8327 123.915 79.4743 123.913 80.2361 124.135 80.8689 124.57 82.1171 126.131 82.668 127.135 81.6604 127.85 80.9421 128.05 79.945 127.785 78.9844 127.689 78.6392 127.503 78.3481 127.26 78.1249 127.234 78.1005 127.074 77.8809 127.063 77.8634 126.88 77.595 126.629 77.3945 126.31 77.3439L126.31 77.3439Z" transform="matrix(1 0 0 1.00232 467 258)"/><path d="M161.916 75.8081C161.075 73.2158 158.521 70.3742 155.631 69.7396 155.655 69.5653 155.556 69.3613 155.345 69.3578 151.689 69.302 148.586 71.5526 147.2 74.9172 145.834 78.2348 146.121 83.0341 148.951 85.5584 151.797 88.0984 156.212 87.7201 159.091 85.4765 161.975 83.2311 163.035 79.2633 161.916 75.8081ZM154.716 85.4312C152.765 85.684 150.689 85.032 149.611 83.3008 148.647 81.7493 148.358 79.7061 148.529 77.9157 148.813 74.9329 150.516 72.229 153.086 70.8309 153.112 70.8379 153.121 70.8658 153.15 70.8693 154.925 71.1255 156.463 71.2075 157.988 72.2953 159.672 73.4964 160.622 75.299 160.802 77.3457 161.138 81.1444 158.617 84.9256 154.716 85.4312Z" transform="matrix(1 0 0 1.00232 467 258)"/><path d="M153.872 78.0552C153.241 78.7177 152.873 79.8438 153.323 80.7033 153.828 81.8556 154.82 82.2026 155.725 82.0439 156.778 81.8574 157.714 80.9857 157.631 79.8961 157.629 79.8787 157.638 80.1088 157.606 79.5736 157.559 78.7735 157.017 78.0256 156.3 77.6525 155.56 77.2655 154.63 77.2812 153.872 78.0552L153.872 78.0552Z" transform="matrix(1 0 0 1.00232 467 258)"/><path d="M145.176 105.254C144.402 102.72 141.327 104.604 140.225 105.784 138.702 107.414 136.913 109.878 137.391 112.249 137.792 114.245 140.255 115.709 142.052 114.384 143.173 113.558 143.295 112.111 143.529 110.843 143.783 109.466 144.367 107.993 143.731 106.684 143.661 106.539 143.555 106.438 143.438 106.356 143.848 106.264 144.286 106.255 144.683 106.124 145.037 106.009 145.293 105.636 145.176 105.254ZM140.52 112.118C139.99 112.421 140.037 110.936 140.051 110.863 140.206 110.076 140.637 109.287 141.121 108.577 141.031 109.098 140.964 109.627 140.874 110.11 140.842 110.263 140.677 112.029 140.52 112.118Z" transform="matrix(1 0 0 1.00232 467 258)"/></g></svg>