<svg width="296" height="236" xmlns="http://www.w3.org/2000/svg" xmlns:xlink="http://www.w3.org/1999/xlink" xml:space="preserve" overflow="hidden"><g transform="translate(-144 -258)"><path d="M37.4096 155.458 114.109 155.458 114.109 258.881 37.4096 258.881Z" stroke="#FFFF99" stroke-width="0.347084" fill="#85789A" transform="matrix(-0.981403 -0.191958 -0.191281 0.984874 495.235 225.364)"/><path d="M73.683 168.416 150.375 168.416 150.375 271.829 73.683 271.829Z" stroke="#FFFF99" stroke-width="0.347049" fill="#F2F2F2" transform="matrix(-1 0 0 1.00354 457.007 206.983)"/><path d="M139.444 255.823 84.6143 255.823 84.6143 255.476 139.444 255.476 139.444 255.823ZM139.444 252.283 84.6143 252.283 84.6143 252.63 139.444 252.63 139.444 252.283ZM139.444 249.09 84.6143 249.09 84.6143 249.437 139.444 249.437 139.444 249.09ZM139.444 245.898 84.6143 245.898 84.6143 246.245 139.444 246.245 139.444 245.898ZM139.444 242.705 84.6143 242.705 84.6143 243.052 139.444 243.052 139.444 242.705ZM139.444 239.512 84.6143 239.512 84.6143 239.859 139.444 239.859 139.444 239.512ZM139.444 236.32 84.6143 236.32 84.6143 236.667 139.444 236.667 139.444 236.32ZM139.444 233.127 84.6143 233.127 84.6143 233.474 139.444 233.474 139.444 233.127ZM139.444 229.935 84.6143 229.935 84.6143 230.282 139.444 230.282 139.444 229.935ZM139.444 226.742 84.6143 226.742 84.6143 227.089 139.444 227.089 139.444 226.742ZM139.444 223.549 84.6143 223.549 84.6143 223.896 139.444 223.896 139.444 223.549ZM139.444 220.357 84.6143 220.357 84.6143 220.704 139.444 220.704 139.444 220.357ZM139.444 217.164 84.6143 217.164 84.6143 217.511 139.444 217.511 139.444 217.164ZM139.444 213.972 84.6143 213.972 84.6143 214.319 139.444 214.319 139.444 213.972ZM139.444 210.779 84.6143 210.779 84.6143 211.126 139.444 211.126 139.444 210.779ZM139.444 207.586 84.6143 207.586 84.6143 207.933 139.444 207.933 139.444 207.586ZM139.444 204.394 84.6143 204.394 84.6143 204.741 139.444 204.741 139.444 204.394ZM139.444 201.201 84.6143 201.201 84.6143 201.548 139.444 201.548 139.444 201.201ZM139.444 198.008 84.6143 198.008 84.6143 198.356 139.444 198.356 139.444 198.008ZM139.444 194.816 84.6143 194.816 84.6143 195.163 139.444 195.163 139.444 194.816ZM139.444 191.623 84.6143 191.623 84.6143 191.97 139.444 191.97 139.444 191.623ZM139.444 188.431 84.6143 188.431 84.6143 188.778 139.444 188.778 139.444 188.431ZM139.444 185.238 84.6143 185.238 84.6143 185.585 139.444 185.585 139.444 185.238Z" stroke="#FFFF99" stroke-width="0.347049" fill="#CFCFCF" transform="matrix(-1 0 0 1.00354 457.007 206.983)"/><path d="M306.956 177.83C305.64 174.952 296.615 176.127 282.996 178.246 273.718 179.69 263.202 181.327 262.209 179.263 261.992 178.81 262.19 177.85 264.373 175.85 265.744 174.592 266.184 173.297 265.678 171.998 263.813 167.202 249.111 164.142 242.045 164.142L240.14 164.142 240.14 162.06 228.688 162.06 228.688 167.089 240.14 167.089 240.14 164.836 242.045 164.836C249.984 164.836 263.44 168.157 265.032 172.25 265.428 173.269 265.059 174.279 263.904 175.338 261.843 177.227 261.106 178.57 261.584 179.564 262.717 181.921 270.47 180.897 283.103 178.932 293.427 177.325 305.13 175.503 306.325 178.118 306.669 178.871 306.213 180.503 302.087 184.004 284.37 199.037 288.071 212.526 292.756 229.603 294.209 234.899 295.712 240.376 296.764 246.446 298.97 259.175 293.198 266.47 287.968 270.348 278.946 277.037 265.433 278.115 261.544 276.157 261.144 275.956 260.668 275.625 260.668 275.189L260.668 272.066 262.056 272.066 262.056 263.737 258.586 263.737 258.586 272.066 259.974 272.066 259.974 275.189C259.974 275.625 260.193 276.254 261.232 276.777 262.42 277.375 264.495 277.725 267.077 277.725 273.036 277.725 281.695 275.863 288.382 270.905 293.769 266.911 299.715 259.404 297.448 246.327 296.39 240.225 294.883 234.731 293.426 229.419 291.059 220.794 289.016 213.346 289.707 206.097 290.464 198.17 294.54 191.318 302.536 184.534 306.215 181.411 307.62 179.281 306.956 177.83Z" stroke="#FFFF99" stroke-width="0.347049" fill="#CFCFCF" transform="matrix(-1 0 0 1.00354 457.007 206.983)"/><path d="M227.529 258.915 158.932 269.472 158.196 264.685 226.793 254.128 234.363 255.405Z" stroke="#FFFF99" stroke-width="0.347049" fill="#85789A" transform="matrix(-1 0 0 1.00354 457.007 206.983)"/><path d="M169.143 260.926 211.485 260.926 211.485 261.273 169.143 261.273Z" stroke="#FFFF99" stroke-width="0.34709" fill="#FFFFFF" transform="matrix(-0.988285 -0.15262 -0.152082 0.99178 494.503 239.078)"/><path d="M63.1842 237.364 30.1726 237.364C28.6238 237.364 27.3683 236.108 27.3683 234.559L27.3683 165.523C27.3683 163.974 28.6238 162.718 30.1726 162.718L63.1842 162.718C64.733 162.718 65.9885 163.974 65.9885 165.523L65.9885 234.559C65.9885 236.108 64.733 237.364 63.1842 237.364Z" stroke="#FFFF99" stroke-width="0.347049" fill="#505050" transform="matrix(-1 0 0 1.00354 457.007 206.983)"/><path d="M35.8371 202.02C35.8371 203.133 34.935 204.035 33.8222 204.035 32.7095 204.035 31.8074 203.133 31.8074 202.02 31.8074 200.908 32.7095 200.006 33.8222 200.006 34.935 200.006 35.8371 200.908 35.8371 202.02Z" stroke="#FFFF99" stroke-width="0.347049" fill="#737373" transform="matrix(-1 0 0 1.00354 457.007 206.983)"/><path d="M42.3857 202.02C42.3857 203.133 41.4837 204.035 40.3709 204.035 39.2582 204.035 38.3561 203.133 38.3561 202.02 38.3561 200.908 39.2582 200.006 40.3709 200.006 41.4837 200.006 42.3857 200.908 42.3857 202.02Z" stroke="#FFFF99" stroke-width="0.347049" fill="#737373" transform="matrix(-1 0 0 1.00354 457.007 206.983)"/><path d="M34.78 190.891C34.78 191.633 34.1786 192.234 33.4367 192.234 32.6948 192.234 32.0934 191.633 32.0934 190.891 32.0934 190.149 32.6948 189.547 33.4367 189.547 34.1786 189.547 34.78 190.149 34.78 190.891Z" stroke="#FFFF99" stroke-width="0.347049" fill="#CFCFCF" transform="matrix(-1 0 0 1.00354 457.007 206.983)"/><path d="M41.3287 190.891C41.3287 191.633 40.7273 192.234 39.9854 192.234 39.2435 192.234 38.642 191.633 38.642 190.891 38.642 190.149 39.2435 189.547 39.9854 189.547 40.7273 189.547 41.3287 190.149 41.3287 190.891Z" stroke="#FFFF99" stroke-width="0.347049" fill="#737373" transform="matrix(-1 0 0 1.00354 457.007 206.983)"/><path d="M48.9344 202.02C48.9344 203.133 48.0323 204.035 46.9196 204.035 45.8068 204.035 44.9048 203.133 44.9048 202.02 44.9048 200.908 45.8068 200.006 46.9196 200.006 48.0323 200.006 48.9344 200.908 48.9344 202.02Z" stroke="#FFFF99" stroke-width="0.347049" fill="#737373" transform="matrix(-1 0 0 1.00354 457.007 206.983)"/><path d="M55.4831 202.02C55.4831 203.133 54.581 204.035 53.4683 204.035 52.3555 204.035 51.4534 203.133 51.4534 202.02 51.4534 200.908 52.3555 200.006 53.4683 200.006 54.581 200.006 55.4831 200.908 55.4831 202.02Z" stroke="#FFFF99" stroke-width="0.347049" fill="#737373" transform="matrix(-1 0 0 1.00354 457.007 206.983)"/><path d="M62.0317 202.02C62.0317 203.133 61.1297 204.035 60.0169 204.035 58.9042 204.035 58.0021 203.133 58.0021 202.02 58.0021 200.908 58.9042 200.006 60.0169 200.006 61.1297 200.006 62.0317 200.908 62.0317 202.02Z" stroke="#FFFF99" stroke-width="0.347049" fill="#737373" transform="matrix(-1 0 0 1.00354 457.007 206.983)"/><path d="M35.8371 208.401C35.8371 209.514 34.935 210.416 33.8222 210.416 32.7095 210.416 31.8074 209.514 31.8074 208.401 31.8074 207.288 32.7095 206.386 33.8222 206.386 34.935 206.386 35.8371 207.288 35.8371 208.401Z" stroke="#FFFF99" stroke-width="0.347049" fill="#CFCFCF" transform="matrix(-1 0 0 1.00354 457.007 206.983)"/><path d="M42.3857 208.401C42.3857 209.514 41.4837 210.416 40.3709 210.416 39.2582 210.416 38.3561 209.514 38.3561 208.401 38.3561 207.288 39.2582 206.386 40.3709 206.386 41.4837 206.386 42.3857 207.288 42.3857 208.401Z" stroke="#FFFF99" stroke-width="0.347049" fill="#737373" transform="matrix(-1 0 0 1.00354 457.007 206.983)"/><path d="M48.9344 208.401C48.9344 209.514 48.0323 210.416 46.9196 210.416 45.8068 210.416 44.9048 209.514 44.9048 208.401 44.9048 207.288 45.8068 206.386 46.9196 206.386 48.0323 206.386 48.9344 207.288 48.9344 208.401Z" stroke="#FFFF99" stroke-width="0.347049" fill="#737373" transform="matrix(-1 0 0 1.00354 457.007 206.983)"/><path d="M55.4831 208.401C55.4831 209.514 54.581 210.416 53.4683 210.416 52.3555 210.416 51.4534 209.514 51.4534 208.401 51.4534 207.288 52.3555 206.386 53.4683 206.386 54.581 206.386 55.4831 207.288 55.4831 208.401Z" stroke="#FFFF99" stroke-width="0.347049" fill="#737373" transform="matrix(-1 0 0 1.00354 457.007 206.983)"/><path d="M62.0317 208.401C62.0317 209.514 61.1297 210.416 60.0169 210.416 58.9042 210.416 58.0021 209.514 58.0021 208.401 58.0021 207.288 58.9042 206.386 60.0169 206.386 61.1297 206.386 62.0317 207.288 62.0317 208.401Z" stroke="#FFFF99" stroke-width="0.347049" fill="#CFCFCF" transform="matrix(-1 0 0 1.00354 457.007 206.983)"/><path d="M35.8371 214.782C35.8371 215.895 34.935 216.797 33.8222 216.797 32.7095 216.797 31.8074 215.895 31.8074 214.782 31.8074 213.669 32.7095 212.767 33.8222 212.767 34.935 212.767 35.8371 213.669 35.8371 214.782Z" stroke="#FFFF99" stroke-width="0.347049" fill="#CFCFCF" transform="matrix(-1 0 0 1.00354 457.007 206.983)"/><path d="M42.3857 214.782C42.3857 215.895 41.4837 216.797 40.3709 216.797 39.2582 216.797 38.3561 215.895 38.3561 214.782 38.3561 213.669 39.2582 212.767 40.3709 212.767 41.4837 212.767 42.3857 213.669 42.3857 214.782Z" stroke="#FFFF99" stroke-width="0.347049" fill="#737373" transform="matrix(-1 0 0 1.00354 457.007 206.983)"/><path d="M48.9344 214.782C48.9344 215.895 48.0323 216.797 46.9196 216.797 45.8068 216.797 44.9048 215.895 44.9048 214.782 44.9048 213.669 45.8068 212.767 46.9196 212.767 48.0323 212.767 48.9344 213.669 48.9344 214.782Z" stroke="#FFFF99" stroke-width="0.347049" fill="#737373" transform="matrix(-1 0 0 1.00354 457.007 206.983)"/><path d="M55.4831 214.782C55.4831 215.895 54.581 216.797 53.4683 216.797 52.3555 216.797 51.4534 215.895 51.4534 214.782 51.4534 213.669 52.3555 212.767 53.4683 212.767 54.581 212.767 55.4831 213.669 55.4831 214.782Z" stroke="#FFFF99" stroke-width="0.347049" fill="#737373" transform="matrix(-1 0 0 1.00354 457.007 206.983)"/><path d="M62.0317 214.782C62.0317 215.895 61.1297 216.797 60.0169 216.797 58.9042 216.797 58.0021 215.895 58.0021 214.782 58.0021 213.669 58.9042 212.767 60.0169 212.767 61.1297 212.767 62.0317 213.669 62.0317 214.782Z" stroke="#FFFF99" stroke-width="0.347049" fill="#CFCFCF" transform="matrix(-1 0 0 1.00354 457.007 206.983)"/><path d="M35.8371 221.163C35.8371 222.275 34.935 223.177 33.8222 223.177 32.7095 223.177 31.8074 222.275 31.8074 221.163 31.8074 220.05 32.7095 219.148 33.8222 219.148 34.935 219.148 35.8371 220.05 35.8371 221.163Z" stroke="#FFFF99" stroke-width="0.347049" fill="#CFCFCF" transform="matrix(-1 0 0 1.00354 457.007 206.983)"/><path d="M42.3857 221.163C42.3857 222.275 41.4837 223.177 40.3709 223.177 39.2582 223.177 38.3561 222.275 38.3561 221.163 38.3561 220.05 39.2582 219.148 40.3709 219.148 41.4837 219.148 42.3857 220.05 42.3857 221.163Z" stroke="#FFFF99" stroke-width="0.347049" fill="#737373" transform="matrix(-1 0 0 1.00354 457.007 206.983)"/><path d="M48.9344 221.163C48.9344 222.275 48.0323 223.177 46.9196 223.177 45.8068 223.177 44.9048 222.275 44.9048 221.163 44.9048 220.05 45.8068 219.148 46.9196 219.148 48.0323 219.148 48.9344 220.05 48.9344 221.163Z" stroke="#FFFF99" stroke-width="0.347049" fill="#737373" transform="matrix(-1 0 0 1.00354 457.007 206.983)"/><path d="M55.4831 221.163C55.4831 222.275 54.581 223.177 53.4683 223.177 52.3555 223.177 51.4534 222.275 51.4534 221.163 51.4534 220.05 52.3555 219.148 53.4683 219.148 54.581 219.148 55.4831 220.05 55.4831 221.163Z" stroke="#FFFF99" stroke-width="0.347049" fill="#737373" transform="matrix(-1 0 0 1.00354 457.007 206.983)"/><path d="M62.0317 221.163C62.0317 222.275 61.1297 223.177 60.0169 223.177 58.9042 223.177 58.0021 222.275 58.0021 221.163 58.0021 220.05 58.9042 219.148 60.0169 219.148 61.1297 219.148 62.0317 220.05 62.0317 221.163Z" stroke="#FFFF99" stroke-width="0.347049" fill="#CFCFCF" transform="matrix(-1 0 0 1.00354 457.007 206.983)"/><path d="M35.8371 227.543C35.8371 228.656 34.935 229.558 33.8222 229.558 32.7095 229.558 31.8074 228.656 31.8074 227.543 31.8074 226.431 32.7095 225.528 33.8222 225.528 34.935 225.528 35.8371 226.431 35.8371 227.543Z" stroke="#FFFF99" stroke-width="0.347049" fill="#CFCFCF" transform="matrix(-1 0 0 1.00354 457.007 206.983)"/><path d="M42.3857 227.543C42.3857 228.656 41.4837 229.558 40.3709 229.558 39.2582 229.558 38.3561 228.656 38.3561 227.543 38.3561 226.431 39.2582 225.528 40.3709 225.528 41.4837 225.528 42.3857 226.431 42.3857 227.543Z" stroke="#FFFF99" stroke-width="0.347049" fill="#737373" transform="matrix(-1 0 0 1.00354 457.007 206.983)"/><path d="M48.9344 227.543C48.9344 228.656 48.0323 229.558 46.9196 229.558 45.8068 229.558 44.9048 228.656 44.9048 227.543 44.9048 226.431 45.8068 225.528 46.9196 225.528 48.0323 225.528 48.9344 226.431 48.9344 227.543Z" stroke="#FFFF99" stroke-width="0.347049" fill="#CFCFCF" transform="matrix(-1 0 0 1.00354 457.007 206.983)"/><path d="M55.4831 227.543C55.4831 228.656 54.581 229.558 53.4683 229.558 52.3555 229.558 51.4534 228.656 51.4534 227.543 51.4534 226.431 52.3555 225.528 53.4683 225.528 54.581 225.528 55.4831 226.431 55.4831 227.543Z" stroke="#FFFF99" stroke-width="0.347049" fill="#85789A" transform="matrix(-1 0 0 1.00354 457.007 206.983)"/><path d="M62.0317 227.543C62.0317 228.656 61.1297 229.558 60.0169 229.558 58.9042 229.558 58.0021 228.656 58.0021 227.543 58.0021 226.431 58.9042 225.528 60.0169 225.528 61.1297 225.528 62.0317 226.431 62.0317 227.543Z" stroke="#FFFF99" stroke-width="0.347049" fill="#CFCFCF" transform="matrix(-1 0 0 1.00354 457.007 206.983)"/><path d="M30.8542 173.201 63.0936 173.201 63.0936 184.805 30.8542 184.805Z" stroke="#FFFF99" stroke-width="0.347049" fill="#CFCFCF" transform="matrix(-1 0 0 1.00354 457.007 206.983)"/><path d="M30.6262 168.332 38.819 168.332 38.819 170.001 30.6262 170.001Z" stroke="#FFFF99" stroke-width="0.347049" fill="#CFCFCF" transform="matrix(-1 0 0 1.00354 457.007 206.983)"/><path d="M279.855 193.982C279.855 192.068 278.303 190.516 276.388 190.516L244.701 190.516C242.787 190.516 241.235 192.068 241.235 193.982L241.235 262.041C241.235 263.956 242.787 265.508 244.701 265.508L276.388 265.508C278.303 265.508 279.855 263.956 279.855 262.041L279.855 193.982Z" stroke="#FFFF99" stroke-width="0.347049" fill="#505050" transform="matrix(-1 0 0 1.00354 457.007 206.983)"/><path d="M243.166 194.333 277.924 194.333 277.924 261.068 243.166 261.068Z" stroke="#FFFF99" stroke-width="0.347049" fill="#E6E6E6" transform="matrix(-1 0 0 1.00354 457.007 206.983)"/><path d="M243.166 239.196 243.166 251.31 243.166 261.069 277.924 261.069 277.924 204.437Z" stroke="#FFFF99" stroke-width="0.347049" fill="#D2D2D2" transform="matrix(-1 0 0 1.00354 457.007 206.983)"/><path d="M269.344 235.976 251.299 235.976C250.724 235.976 250.258 235.51 250.258 234.935 250.258 234.36 250.724 233.893 251.299 233.893L269.344 233.893C269.919 233.893 270.385 234.36 270.385 234.935 270.385 235.51 269.919 235.976 269.344 235.976Z" stroke="#FFFF99" stroke-width="0.347049" fill="#FFFFFF" transform="matrix(-1 0 0 1.00354 457.007 206.983)"/><path d="M269.344 240.834 251.299 240.834C250.724 240.834 250.258 240.368 250.258 239.793 250.258 239.218 250.724 238.752 251.299 238.752L269.344 238.752C269.919 238.752 270.385 239.218 270.385 239.793 270.385 240.368 269.919 240.834 269.344 240.834Z" stroke="#FFFF99" stroke-width="0.347049" fill="#FFFFFF" transform="matrix(-1 0 0 1.00354 457.007 206.983)"/><path d="M228.688 150.261 232.907 150.261 232.907 159.978 228.688 159.978Z" stroke="#FFFF99" stroke-width="0.347049" fill="#737373" transform="matrix(-1 0 0 1.00354 457.007 206.983)"/><path d="M226.212 237.364 86.7089 237.364C84.4092 237.364 82.5446 235.499 82.5446 233.199L82.5446 137.421C82.5446 135.121 84.4092 133.257 86.7089 133.257L226.212 133.257C228.512 133.257 230.376 135.121 230.376 137.421L230.376 233.199C230.376 235.499 228.512 237.364 226.212 237.364Z" stroke="#FFFF99" stroke-width="0.347049" fill="#737373" transform="matrix(-1 0 0 1.00354 457.007 206.983)"/><path d="M104.407 131.869 208.861 131.869 208.861 141.932 104.407 141.932Z" stroke="#FFFF99" stroke-width="0.347049" fill="#2F2F2F" transform="matrix(-1 0 0 1.00354 457.007 206.983)"/><path d="M178.998 232.505 133.829 232.505C132.644 232.505 131.684 231.545 131.684 230.36L131.684 205.5C131.684 204.316 132.644 203.355 133.829 203.355L178.998 203.355C180.183 203.355 181.143 204.316 181.143 205.5L181.143 230.36C181.143 231.545 180.183 232.505 178.998 232.505Z" stroke="#FFFF99" stroke-width="0.347049" fill="#505050" transform="matrix(-1 0 0 1.00354 457.007 206.983)"/><path d="M220.74 198.844 92.4965 198.791C91.0491 198.79 89.8758 197.617 89.8758 196.169L89.8758 143.699C89.8758 142.25 91.0501 141.077 92.4986 141.077L220.742 141.13C222.189 141.131 223.362 142.304 223.362 143.752L223.362 196.223C223.362 197.671 222.188 198.845 220.74 198.844Z" stroke="#FFFF99" stroke-width="0.347049" fill="#505050" transform="matrix(-1 0 0 1.00354 457.007 206.983)"/><path d="M104.453 149.665 93.7427 149.665C93.2749 149.665 92.8956 150.044 92.8956 150.512L92.8956 156.441C92.8956 156.909 93.2749 157.288 93.7427 157.288L104.453 157.288C104.921 157.288 105.3 156.909 105.3 156.441L105.3 150.512C105.3 150.044 104.921 149.665 104.453 149.665Z" stroke="#FFFF99" stroke-width="0.347049" fill="#2F2F2F" transform="matrix(-1 0 0 1.00354 457.007 206.983)"/><path d="M106.896 156.441 106.896 150.512C106.896 150.044 107.275 149.665 107.743 149.665L113.672 149.665C114.14 149.665 114.519 150.044 114.519 150.512L114.519 156.441C114.519 156.909 114.14 157.288 113.672 157.288L107.743 157.288C107.275 157.288 106.896 156.909 106.896 156.441Z" stroke="#FFFF99" stroke-width="0.347049" fill="#2F2F2F" transform="matrix(-1 0 0 1.00354 457.007 206.983)"/><path d="M116.115 156.441 116.115 150.512C116.115 150.044 116.494 149.665 116.962 149.665L122.891 149.665C123.359 149.665 123.738 150.044 123.738 150.512L123.738 156.441C123.738 156.909 123.359 157.288 122.891 157.288L116.962 157.288C116.494 157.288 116.115 156.909 116.115 156.441Z" stroke="#FFFF99" stroke-width="0.347049" fill="#2F2F2F" transform="matrix(-1 0 0 1.00354 457.007 206.983)"/><path d="M125.334 156.441 125.334 150.512C125.334 150.044 125.714 149.665 126.181 149.665L132.11 149.665C132.578 149.665 132.957 150.044 132.957 150.512L132.957 156.441C132.957 156.909 132.578 157.288 132.11 157.288L126.181 157.288C125.713 157.288 125.334 156.909 125.334 156.441Z" stroke="#FFFF99" stroke-width="0.347049" fill="#2F2F2F" transform="matrix(-1 0 0 1.00354 457.007 206.983)"/><path d="M134.553 156.441 134.553 150.512C134.553 150.044 134.933 149.665 135.4 149.665L141.329 149.665C141.797 149.665 142.176 150.044 142.176 150.512L142.176 156.441C142.176 156.909 141.797 157.288 141.329 157.288L135.4 157.288C134.933 157.288 134.553 156.909 134.553 156.441Z" stroke="#FFFF99" stroke-width="0.347049" fill="#2F2F2F" transform="matrix(-1 0 0 1.00354 457.007 206.983)"/><path d="M143.772 156.441 143.772 150.512C143.772 150.044 144.152 149.665 144.619 149.665L150.548 149.665C151.016 149.665 151.395 150.044 151.395 150.512L151.395 156.441C151.395 156.909 151.016 157.288 150.548 157.288L144.619 157.288C144.152 157.288 143.772 156.909 143.772 156.441Z" stroke="#FFFF99" stroke-width="0.347049" fill="#2F2F2F" transform="matrix(-1 0 0 1.00354 457.007 206.983)"/><path d="M152.991 156.441 152.991 150.512C152.991 150.044 153.371 149.665 153.838 149.665L159.767 149.665C160.235 149.665 160.614 150.044 160.614 150.512L160.614 156.441C160.614 156.909 160.235 157.288 159.767 157.288L153.838 157.288C153.371 157.288 152.991 156.909 152.991 156.441Z" stroke="#FFFF99" stroke-width="0.347049" fill="#2F2F2F" transform="matrix(-1 0 0 1.00354 457.007 206.983)"/><path d="M162.21 156.441 162.21 150.512C162.21 150.044 162.59 149.665 163.057 149.665L168.986 149.665C169.454 149.665 169.833 150.044 169.833 150.512L169.833 156.441C169.833 156.909 169.454 157.288 168.986 157.288L163.057 157.288C162.59 157.288 162.21 156.909 162.21 156.441Z" stroke="#FFFF99" stroke-width="0.347049" fill="#2F2F2F" transform="matrix(-1 0 0 1.00354 457.007 206.983)"/><path d="M171.43 156.441 171.43 150.512C171.43 150.044 171.809 149.665 172.277 149.665L178.206 149.665C178.673 149.665 179.053 150.044 179.053 150.512L179.053 156.441C179.053 156.909 178.673 157.288 178.206 157.288L172.277 157.288C171.809 157.288 171.43 156.909 171.43 156.441Z" stroke="#FFFF99" stroke-width="0.347049" fill="#2F2F2F" transform="matrix(-1 0 0 1.00354 457.007 206.983)"/><path d="M180.649 156.441 180.649 150.512C180.649 150.044 181.028 149.665 181.496 149.665L187.425 149.665C187.892 149.665 188.272 150.044 188.272 150.512L188.272 156.441C188.272 156.909 187.892 157.288 187.425 157.288L181.496 157.288C181.028 157.288 180.649 156.909 180.649 156.441Z" stroke="#FFFF99" stroke-width="0.347049" fill="#2F2F2F" transform="matrix(-1 0 0 1.00354 457.007 206.983)"/><path d="M189.868 156.441 189.868 150.512C189.868 150.044 190.247 149.665 190.715 149.665L196.644 149.665C197.111 149.665 197.491 150.044 197.491 150.512L197.491 156.441C197.491 156.909 197.111 157.288 196.644 157.288L190.715 157.288C190.247 157.288 189.868 156.909 189.868 156.441Z" stroke="#FFFF99" stroke-width="0.347049" fill="#2F2F2F" transform="matrix(-1 0 0 1.00354 457.007 206.983)"/><path d="M199.087 156.441 199.087 150.512C199.087 150.044 199.466 149.665 199.934 149.665L205.863 149.665C206.33 149.665 206.71 150.044 206.71 150.512L206.71 156.441C206.71 156.909 206.33 157.288 205.863 157.288L199.934 157.288C199.466 157.288 199.087 156.909 199.087 156.441Z" stroke="#FFFF99" stroke-width="0.347049" fill="#2F2F2F" transform="matrix(-1 0 0 1.00354 457.007 206.983)"/><path d="M99.6716 167.028 93.7427 167.028C93.2749 167.028 92.8956 166.649 92.8956 166.181L92.8956 160.252C92.8956 159.785 93.2749 159.405 93.7427 159.405L99.6716 159.405C100.139 159.405 100.519 159.785 100.519 160.252L100.519 166.181C100.518 166.649 100.139 167.028 99.6716 167.028Z" stroke="#FFFF99" stroke-width="0.347049" fill="#2F2F2F" transform="matrix(-1 0 0 1.00354 457.007 206.983)"/><path d="M102.115 166.181 102.115 160.252C102.115 159.785 102.494 159.405 102.962 159.405L108.891 159.405C109.358 159.405 109.738 159.785 109.738 160.252L109.738 166.181C109.738 166.649 109.358 167.028 108.891 167.028L102.962 167.028C102.494 167.028 102.115 166.649 102.115 166.181Z" stroke="#FFFF99" stroke-width="0.347049" fill="#2F2F2F" transform="matrix(-1 0 0 1.00354 457.007 206.983)"/><path d="M111.334 166.181 111.334 160.252C111.334 159.785 111.713 159.405 112.181 159.405L118.11 159.405C118.577 159.405 118.957 159.785 118.957 160.252L118.957 166.181C118.957 166.649 118.577 167.028 118.11 167.028L112.181 167.028C111.713 167.028 111.334 166.649 111.334 166.181Z" stroke="#FFFF99" stroke-width="0.347049" fill="#2F2F2F" transform="matrix(-1 0 0 1.00354 457.007 206.983)"/><path d="M120.553 166.181 120.553 160.252C120.553 159.785 120.932 159.405 121.4 159.405L127.329 159.405C127.796 159.405 128.176 159.785 128.176 160.252L128.176 166.181C128.176 166.649 127.796 167.028 127.329 167.028L121.4 167.028C120.932 167.028 120.553 166.649 120.553 166.181Z" stroke="#FFFF99" stroke-width="0.347049" fill="#2F2F2F" transform="matrix(-1 0 0 1.00354 457.007 206.983)"/><path d="M129.772 166.181 129.772 160.252C129.772 159.785 130.151 159.405 130.619 159.405L136.548 159.405C137.016 159.405 137.395 159.785 137.395 160.252L137.395 166.181C137.395 166.649 137.016 167.028 136.548 167.028L130.619 167.028C130.151 167.028 129.772 166.649 129.772 166.181Z" stroke="#FFFF99" stroke-width="0.347049" fill="#2F2F2F" transform="matrix(-1 0 0 1.00354 457.007 206.983)"/><path d="M138.991 166.181 138.991 160.252C138.991 159.785 139.37 159.405 139.838 159.405L145.767 159.405C146.235 159.405 146.614 159.785 146.614 160.252L146.614 166.181C146.614 166.649 146.235 167.028 145.767 167.028L139.838 167.028C139.37 167.028 138.991 166.649 138.991 166.181Z" stroke="#FFFF99" stroke-width="0.347049" fill="#2F2F2F" transform="matrix(-1 0 0 1.00354 457.007 206.983)"/><path d="M148.21 166.181 148.21 160.252C148.21 159.785 148.589 159.405 149.057 159.405L154.986 159.405C155.454 159.405 155.833 159.785 155.833 160.252L155.833 166.181C155.833 166.649 155.454 167.028 154.986 167.028L149.057 167.028C148.589 167.028 148.21 166.649 148.21 166.181Z" stroke="#FFFF99" stroke-width="0.347049" fill="#2F2F2F" transform="matrix(-1 0 0 1.00354 457.007 206.983)"/><path d="M157.429 166.181 157.429 160.252C157.429 159.785 157.808 159.405 158.276 159.405L164.205 159.405C164.673 159.405 165.052 159.785 165.052 160.252L165.052 166.181C165.052 166.649 164.673 167.028 164.205 167.028L158.276 167.028C157.808 167.028 157.429 166.649 157.429 166.181Z" stroke="#FFFF99" stroke-width="0.347049" fill="#2F2F2F" transform="matrix(-1 0 0 1.00354 457.007 206.983)"/><path d="M166.648 166.181 166.648 160.252C166.648 159.785 167.027 159.405 167.495 159.405L173.424 159.405C173.892 159.405 174.271 159.785 174.271 160.252L174.271 166.181C174.271 166.649 173.892 167.028 173.424 167.028L167.495 167.028C167.027 167.028 166.648 166.649 166.648 166.181Z" stroke="#FFFF99" stroke-width="0.347049" fill="#2F2F2F" transform="matrix(-1 0 0 1.00354 457.007 206.983)"/><path d="M175.867 166.181 175.867 160.252C175.867 159.785 176.247 159.405 176.714 159.405L182.643 159.405C183.111 159.405 183.49 159.785 183.49 160.252L183.49 166.181C183.49 166.649 183.111 167.028 182.643 167.028L176.714 167.028C176.246 167.028 175.867 166.649 175.867 166.181Z" stroke="#FFFF99" stroke-width="0.347049" fill="#2F2F2F" transform="matrix(-1 0 0 1.00354 457.007 206.983)"/><path d="M185.086 166.181 185.086 160.252C185.086 159.785 185.466 159.405 185.934 159.405L191.862 159.405C192.33 159.405 192.709 159.785 192.709 160.252L192.709 166.181C192.709 166.649 192.33 167.028 191.862 167.028L185.934 167.028C185.465 167.028 185.086 166.649 185.086 166.181Z" stroke="#FFFF99" stroke-width="0.347049" fill="#2F2F2F" transform="matrix(-1 0 0 1.00354 457.007 206.983)"/><path d="M194.305 166.181 194.305 160.252C194.305 159.785 194.685 159.405 195.152 159.405L201.081 159.405C201.549 159.405 201.928 159.785 201.928 160.252L201.928 166.181C201.928 166.649 201.549 167.028 201.081 167.028L195.152 167.028C194.685 167.028 194.305 166.649 194.305 166.181Z" stroke="#FFFF99" stroke-width="0.347049" fill="#2F2F2F" transform="matrix(-1 0 0 1.00354 457.007 206.983)"/><path d="M203.524 166.181 203.524 160.252C203.524 159.785 203.904 159.405 204.372 159.405L210.3 159.405C210.768 159.405 211.147 159.785 211.147 160.252L211.147 166.181C211.147 166.649 210.768 167.028 210.3 167.028L204.372 167.028C203.904 167.028 203.524 166.649 203.524 166.181Z" stroke="#FFFF99" stroke-width="0.347049" fill="#2F2F2F" transform="matrix(-1 0 0 1.00354 457.007 206.983)"/><path d="M219.519 167.028 213.591 167.028C213.123 167.028 212.743 166.649 212.743 166.181L212.743 160.252C212.743 159.785 213.123 159.405 213.591 159.405L219.519 159.405C219.987 159.405 220.367 159.785 220.367 160.252L220.367 166.181C220.367 166.649 219.987 167.028 219.519 167.028Z" stroke="#FFFF99" stroke-width="0.347049" fill="#2F2F2F" transform="matrix(-1 0 0 1.00354 457.007 206.983)"/><path d="M99.6716 147.548 93.7427 147.548C93.2749 147.548 92.8956 147.169 92.8956 146.701L92.8956 144.583C92.8956 144.115 93.2749 143.736 93.7427 143.736L99.6716 143.736C100.139 143.736 100.519 144.115 100.519 144.583L100.519 146.701C100.518 147.169 100.139 147.548 99.6716 147.548Z" stroke="#FFFF99" stroke-width="0.347049" fill="#2F2F2F" transform="matrix(-1 0 0 1.00354 457.007 206.983)"/><path d="M102.115 146.701 102.115 144.583C102.115 144.115 102.494 143.736 102.962 143.736L108.891 143.736C109.358 143.736 109.738 144.115 109.738 144.583L109.738 146.701C109.738 147.169 109.358 147.548 108.891 147.548L102.962 147.548C102.494 147.548 102.115 147.169 102.115 146.701Z" stroke="#FFFF99" stroke-width="0.347049" fill="#2F2F2F" transform="matrix(-1 0 0 1.00354 457.007 206.983)"/><path d="M111.334 146.701 111.334 144.583C111.334 144.115 111.713 143.736 112.181 143.736L118.11 143.736C118.577 143.736 118.957 144.115 118.957 144.583L118.957 146.701C118.957 147.169 118.577 147.548 118.11 147.548L112.181 147.548C111.713 147.548 111.334 147.169 111.334 146.701Z" stroke="#FFFF99" stroke-width="0.347049" fill="#2F2F2F" transform="matrix(-1 0 0 1.00354 457.007 206.983)"/><path d="M120.553 146.701 120.553 144.583C120.553 144.115 120.932 143.736 121.4 143.736L127.329 143.736C127.796 143.736 128.176 144.115 128.176 144.583L128.176 146.701C128.176 147.169 127.796 147.548 127.329 147.548L121.4 147.548C120.932 147.548 120.553 147.169 120.553 146.701Z" stroke="#FFFF99" stroke-width="0.347049" fill="#2F2F2F" transform="matrix(-1 0 0 1.00354 457.007 206.983)"/><path d="M129.772 146.701 129.772 144.583C129.772 144.115 130.151 143.736 130.619 143.736L136.548 143.736C137.016 143.736 137.395 144.115 137.395 144.583L137.395 146.701C137.395 147.169 137.016 147.548 136.548 147.548L130.619 147.548C130.151 147.548 129.772 147.169 129.772 146.701Z" stroke="#FFFF99" stroke-width="0.347049" fill="#2F2F2F" transform="matrix(-1 0 0 1.00354 457.007 206.983)"/><path d="M138.991 146.701 138.991 144.583C138.991 144.115 139.37 143.736 139.838 143.736L145.767 143.736C146.235 143.736 146.614 144.115 146.614 144.583L146.614 146.701C146.614 147.169 146.235 147.548 145.767 147.548L139.838 147.548C139.37 147.548 138.991 147.169 138.991 146.701Z" stroke="#FFFF99" stroke-width="0.347049" fill="#2F2F2F" transform="matrix(-1 0 0 1.00354 457.007 206.983)"/><path d="M148.21 146.701 148.21 144.583C148.21 144.115 148.589 143.736 149.057 143.736L154.986 143.736C155.454 143.736 155.833 144.115 155.833 144.583L155.833 146.701C155.833 147.169 155.454 147.548 154.986 147.548L149.057 147.548C148.589 147.548 148.21 147.169 148.21 146.701Z" stroke="#FFFF99" stroke-width="0.347049" fill="#2F2F2F" transform="matrix(-1 0 0 1.00354 457.007 206.983)"/><path d="M157.429 146.701 157.429 144.583C157.429 144.115 157.808 143.736 158.276 143.736L164.205 143.736C164.673 143.736 165.052 144.115 165.052 144.583L165.052 146.701C165.052 147.169 164.673 147.548 164.205 147.548L158.276 147.548C157.808 147.548 157.429 147.169 157.429 146.701Z" stroke="#FFFF99" stroke-width="0.347049" fill="#2F2F2F" transform="matrix(-1 0 0 1.00354 457.007 206.983)"/><path d="M166.648 146.701 166.648 144.583C166.648 144.115 167.027 143.736 167.495 143.736L173.424 143.736C173.892 143.736 174.271 144.115 174.271 144.583L174.271 146.701C174.271 147.169 173.892 147.548 173.424 147.548L167.495 147.548C167.027 147.548 166.648 147.169 166.648 146.701Z" stroke="#FFFF99" stroke-width="0.347049" fill="#2F2F2F" transform="matrix(-1 0 0 1.00354 457.007 206.983)"/><path d="M175.867 146.701 175.867 144.583C175.867 144.115 176.247 143.736 176.714 143.736L182.643 143.736C183.111 143.736 183.49 144.115 183.49 144.583L183.49 146.701C183.49 147.169 183.111 147.548 182.643 147.548L176.714 147.548C176.246 147.548 175.867 147.169 175.867 146.701Z" stroke="#FFFF99" stroke-width="0.347049" fill="#2F2F2F" transform="matrix(-1 0 0 1.00354 457.007 206.983)"/><path d="M185.086 146.701 185.086 144.583C185.086 144.115 185.466 143.736 185.934 143.736L191.862 143.736C192.33 143.736 192.709 144.115 192.709 144.583L192.709 146.701C192.709 147.169 192.33 147.548 191.862 147.548L185.934 147.548C185.465 147.548 185.086 147.169 185.086 146.701Z" stroke="#FFFF99" stroke-width="0.347049" fill="#2F2F2F" transform="matrix(-1 0 0 1.00354 457.007 206.983)"/><path d="M194.305 146.701 194.305 144.583C194.305 144.115 194.685 143.736 195.152 143.736L201.081 143.736C201.549 143.736 201.928 144.115 201.928 144.583L201.928 146.701C201.928 147.169 201.549 147.548 201.081 147.548L195.152 147.548C194.685 147.548 194.305 147.169 194.305 146.701Z" stroke="#FFFF99" stroke-width="0.347049" fill="#2F2F2F" transform="matrix(-1 0 0 1.00354 457.007 206.983)"/><path d="M203.524 146.701 203.524 144.583C203.524 144.115 203.904 143.736 204.372 143.736L210.3 143.736C210.768 143.736 211.147 144.115 211.147 144.583L211.147 146.701C211.147 147.169 210.768 147.548 210.3 147.548L204.372 147.548C203.904 147.548 203.524 147.169 203.524 146.701Z" stroke="#FFFF99" stroke-width="0.347049" fill="#2F2F2F" transform="matrix(-1 0 0 1.00354 457.007 206.983)"/><path d="M219.519 147.548 213.591 147.548C213.123 147.548 212.743 147.169 212.743 146.701L212.743 144.583C212.743 144.115 213.123 143.736 213.591 143.736L219.519 143.736C219.987 143.736 220.367 144.115 220.367 144.583L220.367 146.701C220.367 147.169 219.987 147.548 219.519 147.548Z" stroke="#FFFF99" stroke-width="0.347049" fill="#2F2F2F" transform="matrix(-1 0 0 1.00354 457.007 206.983)"/><path d="M104.453 169.146 93.7427 169.146C93.2749 169.146 92.8956 169.525 92.8956 169.993L92.8956 175.922C92.8956 176.39 93.2749 176.769 93.7427 176.769L104.453 176.769C104.921 176.769 105.3 176.39 105.3 175.922L105.3 169.993C105.3 169.525 104.921 169.146 104.453 169.146Z" stroke="#FFFF99" stroke-width="0.347049" fill="#2F2F2F" transform="matrix(-1 0 0 1.00354 457.007 206.983)"/><path d="M219.642 169.146 208.932 169.146C208.464 169.146 208.085 169.525 208.085 169.993L208.085 175.922C208.085 176.39 208.464 176.769 208.932 176.769L219.642 176.769C220.11 176.769 220.489 176.39 220.489 175.922L220.489 169.993C220.489 169.525 220.11 169.146 219.642 169.146Z" stroke="#FFFF99" stroke-width="0.347049" fill="#2F2F2F" transform="matrix(-1 0 0 1.00354 457.007 206.983)"/><path d="M219.642 149.665 208.932 149.665C208.464 149.665 208.085 150.044 208.085 150.512L208.085 156.441C208.085 156.909 208.464 157.288 208.932 157.288L219.642 157.288C220.11 157.288 220.489 156.909 220.489 156.441L220.489 150.512C220.489 150.044 220.11 149.665 219.642 149.665Z" stroke="#FFFF99" stroke-width="0.347049" fill="#2F2F2F" transform="matrix(-1 0 0 1.00354 457.007 206.983)"/><path d="M106.896 175.922 106.896 169.993C106.896 169.525 107.275 169.146 107.743 169.146L113.672 169.146C114.14 169.146 114.519 169.525 114.519 169.993L114.519 175.922C114.519 176.389 114.14 176.769 113.672 176.769L107.743 176.769C107.275 176.769 106.896 176.389 106.896 175.922Z" stroke="#FFFF99" stroke-width="0.347049" fill="#2F2F2F" transform="matrix(-1 0 0 1.00354 457.007 206.983)"/><path d="M116.115 175.922 116.115 169.993C116.115 169.525 116.494 169.146 116.962 169.146L122.891 169.146C123.359 169.146 123.738 169.525 123.738 169.993L123.738 175.922C123.738 176.389 123.359 176.769 122.891 176.769L116.962 176.769C116.494 176.769 116.115 176.389 116.115 175.922Z" stroke="#FFFF99" stroke-width="0.347049" fill="#2F2F2F" transform="matrix(-1 0 0 1.00354 457.007 206.983)"/><path d="M125.334 175.922 125.334 169.993C125.334 169.525 125.714 169.146 126.181 169.146L132.11 169.146C132.578 169.146 132.957 169.525 132.957 169.993L132.957 175.922C132.957 176.389 132.578 176.769 132.11 176.769L126.181 176.769C125.713 176.769 125.334 176.389 125.334 175.922Z" stroke="#FFFF99" stroke-width="0.347049" fill="#2F2F2F" transform="matrix(-1 0 0 1.00354 457.007 206.983)"/><path d="M134.553 175.922 134.553 169.993C134.553 169.525 134.933 169.146 135.4 169.146L141.329 169.146C141.797 169.146 142.176 169.525 142.176 169.993L142.176 175.922C142.176 176.389 141.797 176.769 141.329 176.769L135.4 176.769C134.933 176.769 134.553 176.389 134.553 175.922Z" stroke="#FFFF99" stroke-width="0.347049" fill="#2F2F2F" transform="matrix(-1 0 0 1.00354 457.007 206.983)"/><path d="M143.772 175.922 143.772 169.993C143.772 169.525 144.152 169.146 144.619 169.146L150.548 169.146C151.016 169.146 151.395 169.525 151.395 169.993L151.395 175.922C151.395 176.389 151.016 176.769 150.548 176.769L144.619 176.769C144.152 176.769 143.772 176.389 143.772 175.922Z" stroke="#FFFF99" stroke-width="0.347049" fill="#2F2F2F" transform="matrix(-1 0 0 1.00354 457.007 206.983)"/><path d="M152.991 175.922 152.991 169.993C152.991 169.525 153.371 169.146 153.838 169.146L159.767 169.146C160.235 169.146 160.614 169.525 160.614 169.993L160.614 175.922C160.614 176.389 160.235 176.769 159.767 176.769L153.838 176.769C153.371 176.769 152.991 176.389 152.991 175.922Z" stroke="#FFFF99" stroke-width="0.347049" fill="#2F2F2F" transform="matrix(-1 0 0 1.00354 457.007 206.983)"/><path d="M162.21 175.922 162.21 169.993C162.21 169.525 162.59 169.146 163.057 169.146L168.986 169.146C169.454 169.146 169.833 169.525 169.833 169.993L169.833 175.922C169.833 176.389 169.454 176.769 168.986 176.769L163.057 176.769C162.59 176.769 162.21 176.389 162.21 175.922Z" stroke="#FFFF99" stroke-width="0.347049" fill="#2F2F2F" transform="matrix(-1 0 0 1.00354 457.007 206.983)"/><path d="M171.43 175.922 171.43 169.993C171.43 169.525 171.809 169.146 172.277 169.146L178.206 169.146C178.673 169.146 179.053 169.525 179.053 169.993L179.053 175.922C179.053 176.389 178.673 176.769 178.206 176.769L172.277 176.769C171.809 176.769 171.43 176.389 171.43 175.922Z" stroke="#FFFF99" stroke-width="0.347049" fill="#2F2F2F" transform="matrix(-1 0 0 1.00354 457.007 206.983)"/><path d="M180.649 175.922 180.649 169.993C180.649 169.525 181.028 169.146 181.496 169.146L187.425 169.146C187.892 169.146 188.272 169.525 188.272 169.993L188.272 175.922C188.272 176.389 187.892 176.769 187.425 176.769L181.496 176.769C181.028 176.769 180.649 176.389 180.649 175.922Z" stroke="#FFFF99" stroke-width="0.347049" fill="#2F2F2F" transform="matrix(-1 0 0 1.00354 457.007 206.983)"/><path d="M189.868 175.922 189.868 169.993C189.868 169.525 190.247 169.146 190.715 169.146L196.644 169.146C197.111 169.146 197.491 169.525 197.491 169.993L197.491 175.922C197.491 176.389 197.111 176.769 196.644 176.769L190.715 176.769C190.247 176.769 189.868 176.389 189.868 175.922Z" stroke="#FFFF99" stroke-width="0.347049" fill="#2F2F2F" transform="matrix(-1 0 0 1.00354 457.007 206.983)"/><path d="M199.087 175.922 199.087 169.993C199.087 169.525 199.466 169.146 199.934 169.146L205.863 169.146C206.33 169.146 206.71 169.525 206.71 169.993L206.71 175.922C206.71 176.389 206.33 176.769 205.863 176.769L199.934 176.769C199.466 176.769 199.087 176.389 199.087 175.922Z" stroke="#FFFF99" stroke-width="0.347049" fill="#2F2F2F" transform="matrix(-1 0 0 1.00354 457.007 206.983)"/><path d="M108.964 186.509 93.7423 186.509C93.2746 186.509 92.8953 186.13 92.8953 185.662L92.8953 179.733C92.8953 179.265 93.2746 178.886 93.7423 178.886L108.964 178.886C109.432 178.886 109.811 179.265 109.811 179.733L109.811 185.662C109.811 186.13 109.432 186.509 108.964 186.509Z" stroke="#FFFF99" stroke-width="0.347049" fill="#2F2F2F" transform="matrix(-1 0 0 1.00354 457.007 206.983)"/><path d="M111.334 185.662 111.334 179.733C111.334 179.265 111.713 178.886 112.181 178.886L118.11 178.886C118.577 178.886 118.957 179.265 118.957 179.733L118.957 185.662C118.957 186.13 118.577 186.509 118.11 186.509L112.181 186.509C111.713 186.509 111.334 186.13 111.334 185.662Z" stroke="#FFFF99" stroke-width="0.347049" fill="#2F2F2F" transform="matrix(-1 0 0 1.00354 457.007 206.983)"/><path d="M120.553 185.662 120.553 179.733C120.553 179.265 120.932 178.886 121.4 178.886L127.329 178.886C127.796 178.886 128.176 179.265 128.176 179.733L128.176 185.662C128.176 186.13 127.796 186.509 127.329 186.509L121.4 186.509C120.932 186.509 120.553 186.13 120.553 185.662Z" stroke="#FFFF99" stroke-width="0.347049" fill="#2F2F2F" transform="matrix(-1 0 0 1.00354 457.007 206.983)"/><path d="M129.772 185.662 129.772 179.733C129.772 179.265 130.151 178.886 130.619 178.886L136.548 178.886C137.016 178.886 137.395 179.265 137.395 179.733L137.395 185.662C137.395 186.13 137.016 186.509 136.548 186.509L130.619 186.509C130.151 186.509 129.772 186.13 129.772 185.662Z" stroke="#FFFF99" stroke-width="0.347049" fill="#2F2F2F" transform="matrix(-1 0 0 1.00354 457.007 206.983)"/><path d="M138.991 185.662 138.991 179.733C138.991 179.265 139.37 178.886 139.838 178.886L145.767 178.886C146.235 178.886 146.614 179.265 146.614 179.733L146.614 185.662C146.614 186.13 146.235 186.509 145.767 186.509L139.838 186.509C139.37 186.509 138.991 186.13 138.991 185.662Z" stroke="#FFFF99" stroke-width="0.347049" fill="#2F2F2F" transform="matrix(-1 0 0 1.00354 457.007 206.983)"/><path d="M148.21 185.662 148.21 179.733C148.21 179.265 148.589 178.886 149.057 178.886L154.986 178.886C155.454 178.886 155.833 179.265 155.833 179.733L155.833 185.662C155.833 186.13 155.454 186.509 154.986 186.509L149.057 186.509C148.589 186.509 148.21 186.13 148.21 185.662Z" stroke="#FFFF99" stroke-width="0.347049" fill="#2F2F2F" transform="matrix(-1 0 0 1.00354 457.007 206.983)"/><path d="M157.429 185.662 157.429 179.733C157.429 179.265 157.808 178.886 158.276 178.886L164.205 178.886C164.673 178.886 165.052 179.265 165.052 179.733L165.052 185.662C165.052 186.13 164.673 186.509 164.205 186.509L158.276 186.509C157.808 186.509 157.429 186.13 157.429 185.662Z" stroke="#FFFF99" stroke-width="0.347049" fill="#2F2F2F" transform="matrix(-1 0 0 1.00354 457.007 206.983)"/><path d="M166.648 185.662 166.648 179.733C166.648 179.265 167.027 178.886 167.495 178.886L173.424 178.886C173.892 178.886 174.271 179.265 174.271 179.733L174.271 185.662C174.271 186.13 173.892 186.509 173.424 186.509L167.495 186.509C167.027 186.509 166.648 186.13 166.648 185.662Z" stroke="#FFFF99" stroke-width="0.347049" fill="#2F2F2F" transform="matrix(-1 0 0 1.00354 457.007 206.983)"/><path d="M175.867 185.662 175.867 179.733C175.867 179.265 176.247 178.886 176.714 178.886L182.643 178.886C183.111 178.886 183.49 179.265 183.49 179.733L183.49 185.662C183.49 186.13 183.111 186.509 182.643 186.509L176.714 186.509C176.246 186.509 175.867 186.13 175.867 185.662Z" stroke="#FFFF99" stroke-width="0.347049" fill="#2F2F2F" transform="matrix(-1 0 0 1.00354 457.007 206.983)"/><path d="M185.086 185.662 185.086 179.733C185.086 179.265 185.466 178.886 185.934 178.886L191.862 178.886C192.33 178.886 192.709 179.265 192.709 179.733L192.709 185.662C192.709 186.13 192.33 186.509 191.862 186.509L185.934 186.509C185.465 186.509 185.086 186.13 185.086 185.662Z" stroke="#FFFF99" stroke-width="0.347049" fill="#2F2F2F" transform="matrix(-1 0 0 1.00354 457.007 206.983)"/><path d="M194.305 185.662 194.305 179.733C194.305 179.265 194.685 178.886 195.152 178.886L201.081 178.886C201.549 178.886 201.928 179.265 201.928 179.733L201.928 185.662C201.928 186.13 201.549 186.509 201.081 186.509L195.152 186.509C194.685 186.509 194.305 186.13 194.305 185.662Z" stroke="#FFFF99" stroke-width="0.347049" fill="#2F2F2F" transform="matrix(-1 0 0 1.00354 457.007 206.983)"/><path d="M203.524 185.662 203.524 179.733C203.855 179.402 204.041 179.217 204.372 178.886L219.494 178.886C219.825 179.217 220.011 179.402 220.342 179.733L220.342 185.662C220.011 185.992 219.825 186.178 219.494 186.509L204.372 186.509C204.041 186.178 203.855 185.993 203.524 185.662Z" stroke="#FFFF99" stroke-width="0.347049" fill="#2F2F2F" transform="matrix(-1 0 0 1.00354 457.007 206.983)"/><path d="M99.6716 196.056 93.7427 196.056C93.2749 196.056 92.8956 195.677 92.8956 195.209L92.8956 189.281C92.8956 188.813 93.2749 188.433 93.7427 188.433L99.6716 188.433C100.139 188.433 100.519 188.813 100.519 189.281L100.519 195.209C100.518 195.677 100.139 196.056 99.6716 196.056Z" stroke="#FFFF99" stroke-width="0.347049" fill="#2F2F2F" transform="matrix(-1 0 0 1.00354 457.007 206.983)"/><path d="M102.115 195.209 102.115 189.281C102.115 188.813 102.494 188.433 102.962 188.433L108.891 188.433C109.358 188.433 109.738 188.813 109.738 189.281L109.738 195.209C109.738 195.677 109.358 196.056 108.891 196.056L102.962 196.056C102.494 196.056 102.115 195.677 102.115 195.209Z" stroke="#FFFF99" stroke-width="0.347049" fill="#2F2F2F" transform="matrix(-1 0 0 1.00354 457.007 206.983)"/><path d="M111.334 195.209 111.334 189.281C111.334 188.813 111.713 188.433 112.181 188.433L118.11 188.433C118.577 188.433 118.957 188.813 118.957 189.281L118.957 195.209C118.957 195.677 118.577 196.056 118.11 196.056L112.181 196.056C111.713 196.056 111.334 195.677 111.334 195.209Z" stroke="#FFFF99" stroke-width="0.347049" fill="#2F2F2F" transform="matrix(-1 0 0 1.00354 457.007 206.983)"/><path d="M120.553 195.209 120.553 189.281C121.02 189.281 121.4 188.901 121.4 188.433L127.329 188.433C127.329 188.901 127.708 189.281 128.176 189.281L128.176 195.209C127.708 195.209 127.329 195.589 127.329 196.056L121.4 196.056C121.4 195.589 121.02 195.209 120.553 195.209Z" stroke="#FFFF99" stroke-width="0.347049" fill="#2F2F2F" transform="matrix(-1 0 0 1.00354 457.007 206.983)"/><path d="M129.594 195.209 129.594 189.281C129.594 188.813 129.973 188.433 130.441 188.433L182.676 188.433C183.144 188.433 183.523 188.813 183.523 189.281L183.523 195.209C183.523 195.677 183.144 196.056 182.676 196.056L130.44 196.056C129.973 196.056 129.594 195.677 129.594 195.209Z" stroke="#FFFF99" stroke-width="0.347049" fill="#2F2F2F" transform="matrix(-1 0 0 1.00354 457.007 206.983)"/><path d="M185.086 195.209 185.086 189.281C185.086 188.813 185.466 188.433 185.934 188.433L191.862 188.433C192.33 188.433 192.709 188.813 192.709 189.281L192.709 195.209C192.709 195.677 192.33 196.056 191.862 196.056L185.934 196.056C185.465 196.056 185.086 195.677 185.086 195.209Z" stroke="#FFFF99" stroke-width="0.347049" fill="#2F2F2F" transform="matrix(-1 0 0 1.00354 457.007 206.983)"/><path d="M194.342 195.209 194.342 189.281C194.342 188.813 194.721 188.433 195.189 188.433L201.117 188.433C201.585 188.433 201.965 188.813 201.965 189.281L201.965 195.209C201.965 195.677 201.585 196.056 201.117 196.056L195.189 196.056C194.721 196.056 194.342 195.677 194.342 195.209Z" stroke="#FFFF99" stroke-width="0.347049" fill="#2F2F2F" transform="matrix(-1 0 0 1.00354 457.007 206.983)"/><path d="M212.698 195.246 212.698 189.317C212.698 188.849 213.077 188.47 213.545 188.47L219.474 188.47C219.941 188.47 220.321 188.849 220.321 189.317L220.321 195.246C220.321 195.713 219.941 196.093 219.474 196.093L213.545 196.093C213.077 196.093 212.698 195.713 212.698 195.246Z" stroke="#FFFF99" stroke-width="0.347049" fill="#2F2F2F" transform="matrix(-1 0 0 1.00354 457.007 206.983)"/><path d="M210.487 191.904 204.558 191.904C204.09 191.904 203.711 191.524 203.711 191.057L203.711 189.28C203.711 188.812 204.09 188.433 204.558 188.433L210.487 188.433C210.955 188.433 211.334 188.812 211.334 189.28L211.334 191.057C211.334 191.524 210.955 191.904 210.487 191.904Z" stroke="#FFFF99" stroke-width="0.347049" fill="#2F2F2F" transform="matrix(-1 0 0 1.00354 457.007 206.983)"/><path d="M210.487 196.068 204.558 196.068C204.09 196.068 203.711 195.689 203.711 195.221L203.711 193.444C203.711 192.977 204.09 192.597 204.558 192.597L210.487 192.597C210.955 192.597 211.334 192.977 211.334 193.444L211.334 195.221C211.334 195.689 210.955 196.068 210.487 196.068Z" stroke="#FFFF99" stroke-width="0.347049" fill="#2F2F2F" transform="matrix(-1 0 0 1.00354 457.007 206.983)"/><path d="M68.9066 68.132 68.9066 66.2168C68.9066 63.6208 70.3346 61.1916 72.981 61.1916L240.106 61.1916C242.753 61.1916 244.181 63.2737 244.181 66.2168L244.181 68.4791 68.9066 68.132Z" stroke="#FFFF99" stroke-width="0.347049" fill="#CFCFCF" transform="matrix(-1 0 0 1.00354 457.007 206.983)"/><path d="M86.3764 128.571 138.846 128.571 194.37 73.0469 74.9993 73.0469Z" stroke="#FFFF99" stroke-width="0.347049" fill="#F2F2F2" transform="matrix(-1 0 0 1.00354 457.007 206.983)"/><path d="M226.983 128.397 237.801 73.2205 193.117 73.2205 137.94 128.397Z" stroke="#FFFF99" stroke-width="0.347049" fill="#E6E6E6" transform="matrix(-1 0 0 1.00354 457.007 206.983)"/><path d="M87.1388 127.933 76.023 73.6844 193.346 73.6844 202.883 64.1468 202.355 63.9827 72.9893 63.9827C70.3402 63.9827 68.3646 66.4237 68.9163 69.0145L81.9252 130.076C82.3347 131.998 84.0326 133.373 85.9982 133.373L133.658 133.373 139.098 127.933 87.1388 127.933Z" stroke="#FFFF99" stroke-width="0.347049" fill="#2F2F2F" transform="matrix(-1 0 0 1.00354 457.007 206.983)"/><path d="M240.098 63.9827 202.354 63.9827 192.652 73.6848 236.584 73.6848 225.948 127.933 138.404 127.933 132.964 133.373 227.089 133.373C229.054 133.373 230.752 131.998 231.162 130.076L244.171 69.0145C244.723 66.4237 242.747 63.9827 240.098 63.9827Z" stroke="#FFFF99" stroke-width="0.347049" fill="#505050" transform="matrix(-1 0 0 1.00354 457.007 206.983)"/><path d="M175.213 105.91 139.123 105.91C138.548 105.91 138.081 105.444 138.081 104.869 138.081 104.294 138.548 103.828 139.123 103.828L175.213 103.828C175.788 103.828 176.254 104.294 176.254 104.869 176.254 105.444 175.788 105.91 175.213 105.91Z" stroke="#FFFF99" stroke-width="0.347049" fill="#FFFFFF" transform="matrix(-1 0 0 1.00354 457.007 206.983)"/></g></svg>